<svg width="165" height="67" viewBox="0 0 165 67" fill="none" xmlns="http://www.w3.org/2000/svg">
<path d="M77.0169 18.25H70.8555V25.0533H77.0169V18.25Z" fill="#00BCC5"/>
<path d="M28.3737 28.3712C28.3737 35.1856 23.9869 40.1889 18.2294 40.1889C15.4428 40.1889 13.5087 38.8734 12.1329 37.112V39.5999H6.47998V6.60156H12.3173V19.344C13.6931 17.7423 15.5873 16.5534 18.2294 16.5534C23.9919 16.5534 28.3737 21.6009 28.3737 28.3712ZM22.4266 28.3326C22.4266 25.0905 20.343 22.4651 17.2624 22.4651C14.1816 22.4651 12.058 25.1346 12.058 28.3326C12.058 31.5306 14.1766 34.2828 17.2624 34.2828C20.348 34.2828 22.4266 31.6132 22.4266 28.3326Z" fill="#1F1E4D"/>
<path d="M30.4526 28.356C30.4526 21.8444 34.8294 16.5547 41.3995 16.5547C47.9696 16.5547 52.4211 21.8389 52.4211 28.356C52.4211 34.8731 48.0045 40.1958 41.3995 40.1958C34.7945 40.1958 30.4526 34.8675 30.4526 28.356ZM46.5938 28.3174C46.5938 25.081 44.3306 22.5379 41.3995 22.5379C38.4683 22.5379 36.2401 25.0754 36.2401 28.3174C36.2401 31.5595 38.5033 34.2181 41.3995 34.2181C44.2957 34.2181 46.5938 31.6366 46.5938 28.3174Z" fill="#1F1E4D"/>
<path d="M61.0005 6.60156H55.1631V39.6054H61.0005V6.60156Z" fill="#1F1E4D"/>
<path d="M70.8552 25.0602V30.5095C70.8552 33.0966 71.7476 34.324 73.5671 34.324C74.8681 34.324 75.91 33.7901 76.9119 33.2176L78.547 38.3476C76.9119 39.498 74.4943 40.1916 72.3008 40.1916C67.5453 40.1916 65.0179 37.1532 65.0179 31.1204L64.978 25.0547H70.8503L70.8552 25.0602Z" fill="#1F1E4D"/>
<path d="M70.8551 6.60156H64.9829V18.2487H70.8551V6.60156Z" fill="#1F1E4D"/>
<path d="M95.4407 38.3623C94.035 39.5953 92.3351 40.1953 90.3162 40.1953C86.453 40.1953 84.5039 37.4046 84.5039 32.7424V20.3632H81.0742V18.2495H84.5388V10.7031H86.6673V18.2495H94.6083V20.3632H86.6673V32.8195C86.6673 36.2872 87.9285 37.9991 90.4907 37.9991C91.9712 37.9991 93.3072 37.5202 94.5334 36.5239L95.4357 38.3568L95.4407 38.3623Z" fill="#1F1E4D"/>
<path d="M98.7958 27.8015H112.908C112.873 23.0624 110.091 20.0735 106.158 20.0735C102.225 20.0735 99.2294 23.1394 98.7958 27.8015ZM115.037 29.9923H98.7958C99.1198 34.7314 101.896 37.9625 106.627 37.9625C109.119 37.9625 111.966 36.9663 113.701 35.414L114.712 37.247C112.833 38.8818 109.768 40.1972 106.592 40.1972C99.4838 40.1972 96.5576 34.5773 96.5576 29.0015C96.5576 25.776 97.425 23.1449 99.1946 21.0312C100.964 18.9176 103.272 17.8828 106.158 17.8828C108.755 17.8828 110.884 18.802 112.584 20.6734C114.279 22.5064 115.147 24.9779 115.147 28.1263C115.147 28.407 115.111 29.0455 115.037 29.9978" fill="#1F1E4D"/>
<path d="M121.138 37.0874C119.298 34.9737 118.356 32.304 118.356 29.0785C118.356 25.853 119.293 23.1394 121.173 21.0312C123.087 18.9176 125.504 17.8828 128.425 17.8828C132.214 17.8828 135.569 19.9964 137.05 23.3816L135.28 24.499C133.979 21.7908 131.346 20.0735 128.421 20.0735C126.147 20.0735 124.233 20.9102 122.752 22.6219C121.273 24.2953 120.515 26.4475 120.515 29.0785C120.515 31.7096 121.238 33.8178 122.678 35.4966C124.124 37.1699 125.963 38.0066 128.202 38.0066C131.123 38.0066 133.904 36.1736 135.165 33.581L136.935 34.7755C136.177 36.4103 134.986 37.7259 133.395 38.7222C131.805 39.7183 130.075 40.1972 128.202 40.1972C125.35 40.1972 122.967 39.1625 121.128 37.0874" fill="#1F1E4D"/>
<path d="M140.734 39.61V9.52344H142.827V21.8751C143.979 19.2056 146.437 17.7304 149.503 17.7304C151.701 17.7304 153.511 18.5285 154.951 20.0807C156.432 21.633 157.155 23.8677 157.155 26.7354V39.61H154.99V27.1373C154.99 22.6732 152.827 19.9651 149.253 19.9651C147.558 19.9651 146.078 20.6036 144.817 21.8806C143.555 23.1576 142.903 25.0676 142.903 27.6217V39.6155H140.739L140.734 39.61Z" fill="#1F1E4D"/>
<path d="M8.16021 48.6562H6.56006V58.1787H8.16021V48.6562Z" fill="#00BCC5"/>
<path d="M10.2442 51.1817H11.7397V52.1615C12.0787 51.4789 12.8015 51 13.7337 51C15.0197 51 16.2211 51.9302 16.2211 53.9118V58.1777H14.6908V54.3797C14.6908 53.1797 14.1176 52.5357 13.3 52.5357C12.3927 52.5357 11.7597 53.3063 11.7597 54.4017V58.1777H10.2393V51.1817H10.2442Z" fill="#00BCC5"/>
<path d="M17.4821 56.9694L18.3444 55.94C18.7781 56.573 19.4311 56.9308 20.0492 56.9308C20.5976 56.9308 20.9814 56.6116 20.9814 56.1988C20.9814 55.9015 20.807 55.6924 20.5028 55.5272C20.139 55.3346 19.3264 55.0263 18.9277 54.8007C18.2148 54.4154 17.8658 53.7878 17.8658 53.0282C17.8658 51.8282 18.7631 50.9531 20.1639 50.9531C20.9664 50.9531 21.7641 51.2613 22.3323 51.9825L21.5397 53.0557C21.0961 52.5383 20.5478 52.3347 20.1141 52.3347C19.6255 52.3347 19.3463 52.6319 19.3463 52.9952C19.3463 53.2374 19.4859 53.5071 19.8947 53.6778C20.3034 53.8594 20.9216 54.0906 21.425 54.3713C22.1229 54.7841 22.4968 55.3235 22.4968 56.1492C22.4968 57.3877 21.5397 58.3619 20.0342 58.3619C19.0423 58.3619 18.0852 57.9161 17.4771 56.9694" fill="#00BCC5"/>
<path d="M23.8823 55.2551V51.1875H25.4127V55.2551C25.4127 56.1853 25.9012 56.8129 26.7436 56.8129C27.5861 56.8129 28.0845 56.1798 28.0845 55.2551V51.1875H29.61V55.2551C29.61 57.2147 28.5133 58.3486 26.7386 58.3486C24.964 58.3486 23.8823 57.2036 23.8823 55.2551Z" fill="#00BCC5"/>
<path d="M31.4297 51.1817H32.8903V52.1449C33.2891 51.3578 33.8922 51 34.65 51C34.8843 51 35.1534 51.0386 35.4077 51.1432L35.278 52.7503C35.0338 52.6623 34.7745 52.6073 34.5403 52.6073C33.6679 52.6073 32.9451 53.2292 32.9451 54.7595V58.1722H31.4297V51.1762V51.1817Z" fill="#00BCC5"/>
<path d="M41.4292 54.6705C41.4292 53.5091 40.6715 52.5459 39.5648 52.5459C38.4581 52.5459 37.7104 53.5091 37.7104 54.6705C37.7104 55.832 38.4581 56.8062 39.5648 56.8062C40.6715 56.8062 41.4292 55.8429 41.4292 54.6705ZM42.8399 51.1808V58.1767H41.3943V57.3126C40.9157 57.9071 40.2378 58.3474 39.3255 58.3474C37.4961 58.3474 36.1851 56.7237 36.1851 54.6486C36.1851 52.5734 37.516 51.0156 39.3255 51.0156C40.2378 51.0156 40.9008 51.467 41.3943 52.0725V51.1863H42.8399V51.1808Z" fill="#00BCC5"/>
<path d="M44.7344 51.1817H46.2299V52.1615C46.5689 51.4789 47.2917 51 48.2239 51C49.5099 51 50.7113 51.9302 50.7113 53.9118V58.1777H49.186V54.3797C49.186 53.1797 48.6126 52.5357 47.7952 52.5357C46.8879 52.5357 46.2548 53.3063 46.2548 54.4017V58.1777H44.7344V51.1817Z" fill="#00BCC5"/>
<path d="M52.1773 54.6761C52.1773 52.5349 53.5681 51.0156 55.572 51.0156C56.8332 51.0156 57.9847 51.6982 58.513 52.9312L57.2768 53.6687C56.918 52.9972 56.3098 52.5624 55.5969 52.5624C54.5002 52.5624 53.6927 53.4761 53.6927 54.6761C53.6927 55.8759 54.4753 56.7897 55.5471 56.7897C56.245 56.7897 56.9479 56.3384 57.2469 55.6943L58.4832 56.4925C57.9448 57.5988 56.8282 58.3364 55.5222 58.3364C53.5481 58.3364 52.1724 56.8007 52.1724 54.6816" fill="#00BCC5"/>
<path d="M61.0454 54.0101H64.4301C64.3006 53.0302 63.6475 52.4247 62.7851 52.4247C61.9227 52.4247 61.2448 53.0413 61.0454 54.0101ZM65.8757 55.2815H61.0454C61.2349 56.1843 61.828 56.8943 62.9845 56.8943C63.6973 56.8943 64.5249 56.5971 65.0732 56.1677L65.6763 57.3677C65.0832 57.8575 64.0812 58.331 62.9247 58.331C60.5469 58.331 59.4951 56.5255 59.4951 54.6761C59.4951 52.5844 60.8111 51.0156 62.7851 51.0156C64.5697 51.0156 65.9255 52.3202 65.9255 54.5329C65.9255 54.8137 65.9006 55.0503 65.8757 55.276" fill="#00BCC5"/>
</svg>
